<?xml version="1.0" standalone="no"?>
 <!DOCTYPE svg PUBLIC "-//W3C//DTD SVG 1.1//EN" 
 "http://www.w3.org/Graphics/SVG/1.1/DTD/svg11.dtd"> 
<svg
  xmlns:svg="http://www.w3.org/2000/svg"
  xmlns="http://www.w3.org/2000/svg"
  xmlns:xlink="http://www.w3.org/1999/xlink"
  version="1.1"
  width="10.505440cm" height="8.689340cm" viewBox="0 0 41360 34210">
<title>SVG Picture created as sweepv2_plate-Edge_Cuts.svg date 2021/07/26 10:33:26 </title>
  <desc>Picture generated by PCBNEW </desc>
<g style="fill:#000000; fill-opacity:1;stroke:#000000; stroke-opacity:1;
stroke-linecap:round; stroke-linejoin:round;"
 transform="translate(0 0) scale(1 1)">
</g>
<g style="fill:#000000; fill-opacity:0.0; 
stroke:#000000; stroke-width:-0.000393701; stroke-opacity:1; 
stroke-linecap:round; stroke-linejoin:round;">
</g>
<g style="fill:#C2C200; fill-opacity:0.0; 
stroke:#C2C200; stroke-width:-0.000393701; stroke-opacity:1; 
stroke-linecap:round; stroke-linejoin:round;">
</g>
<g style="fill:#C2C200; fill-opacity:0.0; 
stroke:#C2C200; stroke-width:19.685; stroke-opacity:1; 
stroke-linecap:round; stroke-linejoin:round;">
<path d="M41351 26844
L36351 26844
" />
<path d="M36351 26844
L36351 24144
" />
<path d="M35251 24144
L36351 24144
" />
<path d="M35251 23344
L35251 24144
" />
<path d="M35251 23344
L34851 23344
" />
<path d="M19931 9
L18277 11
" />
<path d="M41351 26844
L37403 33847
" />
<path d="M18277.7 11.9925 A27059.1 27059.1 0.0 0 0 571.632 6609.18" />
<path d="M34851 23344
L34864 3528
" />
<path d="M25.6691 26799 A780.87 780.87 0.0 0 0 827.931 27521.8" />
<path d="M27852 30467 A127542 127542 0.0 0 0 827.932 27521.8" />
<path d="M36327.9 34083.6 A774.241 774.241 0.0 0 0 37403.5 33847.9" />
<path d="M34693.8 3260.32 A56703.2 56703.2 0.0 0 0 19931.8 9.84282" />
<path d="M571.632 6609.18 A1599.61 1599.61 0.0 0 0 9.84309 7401.98" />
<path d="M36327.9 34083.6 A33972.1 33972.1 0.0 0 0 27852 30467" />
<path d="M34865 3528.24 A295.276 295.276 0.0 0 0 34693.8 3260.32" />
<path d="M9 7401
L25 26798
" />
</g>
<g style="fill:#C2C200; fill-opacity:0.0; 
stroke:#C2C200; stroke-width:59.0551; stroke-opacity:1; 
stroke-linecap:round; stroke-linejoin:round;">
<path d="M7643 16888
L13155 16888
" />
<path d="M7643 22400
L13155 22400
" />
<path d="M7643 22400
L7643 16888
" />
<path d="M13155 22400
L13155 16888
" />
<path d="M7643 10188
L13155 10188
" />
<path d="M7643 15700
L13155 15700
" />
<path d="M7643 15700
L7643 10188
" />
<path d="M13155 15700
L13155 10188
" />
<path d="M557 14922
L6068 14922
" />
<path d="M557 20434
L6068 20434
" />
<path d="M557 20434
L557 14922
" />
<path d="M6068 20434
L6068 14922
" />
<path d="M7643 3505
L13155 3505
" />
<path d="M7643 9017
L13155 9017
" />
<path d="M7643 9017
L7643 3505
" />
<path d="M13155 9017
L13155 3505
" />
<path d="M557 8230
L6068 8230
" />
<path d="M557 13741
L6068 13741
" />
<path d="M557 13741
L557 8230
" />
<path d="M6068 13741
L6068 8230
" />
<path d="M557 21615
L6068 21615
" />
<path d="M557 27127
L6068 27127
" />
<path d="M557 27127
L557 21615
" />
<path d="M6068 27127
L6068 21615
" />
<path d="M30446 30384
L25122 28958
" />
<path d="M31873 25060
L26549 23634
" />
<path d="M31873 25060
L30446 30384
" />
<path d="M26549 23634
L25122 28958
" />
<path d="M36813 33923
L32040 31167
" />
<path d="M39569 29150
L34796 26394
" />
<path d="M39569 29150
L36813 33923
" />
<path d="M34796 26394
L32040 31167
" />
<path d="M28895 17288
L34407 17288
" />
<path d="M28895 22800
L34407 22800
" />
<path d="M28895 22800
L28895 17288
" />
<path d="M34407 22800
L34407 17288
" />
<path d="M21816 16288
L27328 16288
" />
<path d="M21816 21800
L27328 21800
" />
<path d="M21816 21800
L21816 16288
" />
<path d="M27328 21800
L27328 16288
" />
<path d="M14730 14188
L20242 14188
" />
<path d="M14730 19700
L20242 19700
" />
<path d="M14730 19700
L14730 14188
" />
<path d="M20242 19700
L20242 14188
" />
<path d="M28895 10588
L34407 10588
" />
<path d="M28895 16100
L34407 16100
" />
<path d="M28895 16100
L28895 10588
" />
<path d="M34407 16100
L34407 10588
" />
<path d="M21816 9588
L27328 9588
" />
<path d="M21816 15100
L27328 15100
" />
<path d="M21816 15100
L21816 9588
" />
<path d="M27328 15100
L27328 9588
" />
<path d="M14730 7488
L20242 7488
" />
<path d="M14730 13000
L20242 13000
" />
<path d="M14730 13000
L14730 7488
" />
<path d="M20242 13000
L20242 7488
" />
<path d="M28903 3899
L34415 3899
" />
<path d="M28903 9411
L34415 9411
" />
<path d="M28903 9411
L28903 3899
" />
<path d="M34415 9411
L34415 3899
" />
<path d="M21816 2915
L27328 2915
" />
<path d="M21816 8426
L27328 8426
" />
<path d="M21816 8426
L21816 2915
" />
<path d="M27328 8426
L27328 2915
" />
<path d="M14730 749
L20242 749
" />
<path d="M14730 6261
L20242 6261
" />
<path d="M14730 6261
L14730 749
" />
<path d="M20242 6261
L20242 749
" />
<g >
</g>
<g >
</g>
<g >
</g>
<g >
</g>
<g >
</g>
<g >
</g>
<g >
</g>
<g >
</g>
<g >
</g>
<g >
</g>
<g >
</g>
<g >
</g>
<g >
</g>
<g >
</g>
<g >
</g>
<g >
</g>
<g >
</g>
<g >
</g>
</g> 
</svg>
