<?xml version="1.0" standalone="no"?>
 <!DOCTYPE svg PUBLIC "-//W3C//DTD SVG 1.1//EN" 
 "http://www.w3.org/Graphics/SVG/1.1/DTD/svg11.dtd"> 
<svg
  xmlns:svg="http://www.w3.org/2000/svg"
  xmlns="http://www.w3.org/2000/svg"
  xmlns:xlink="http://www.w3.org/1999/xlink"
  version="1.1"
  width="11.231880cm" height="9.519920cm" viewBox="0 0 112318800 95199200">
<title>SVG Picture created as sweep-high-plate-Edge_Cuts.svg date 2021/12/17 18:38:48 </title>
  <desc>Picture generated by PCBNEW </desc>
<g style="fill:#000000; fill-opacity:1.000000;stroke:#000000; stroke-opacity:1.000000;
stroke-linecap:round; stroke-linejoin:round;"
 transform="translate(0 0) scale(1 1)">
</g>
<g style="fill:#000000; fill-opacity:0.0; 
stroke:#000000; stroke-width:0.000000; stroke-opacity:1; 
stroke-linecap:round; stroke-linejoin:round;">
</g>
<g style="fill:#C2C200; fill-opacity:0.0; 
stroke:#C2C200; stroke-width:0.000000; stroke-opacity:1; 
stroke-linecap:round; stroke-linejoin:round;">
</g>
<g style="fill:#C2C200; fill-opacity:0.0; 
stroke:#C2C200; stroke-width:50000.000000; stroke-opacity:1; 
stroke-linecap:round; stroke-linejoin:round;">
<path d="M91816999 69161496
L89116999 69161496
" />
<path d="M89116999 69161496
L89116999 64511496
" />
<path d="M99016999 73411496
L112316999 73311496
" />
<path d="M91816999 69161496
L99016999 73411496
" />
<path d="M46434999.000000 29496.000000 A68730000.000000 68730000.000000 0.0 0 0 1461609.979334 16786356.976117" />
<path d="M50410123 27057
L46434999 29496
" />
<path d="M32858 18798816
L25000 73104495
" />
<path d="M95029999.000000 10034496.000000 A750000.000000 750000.000000 0.0 0 0 94595243.862434 9353966.296968" />
<path d="M25000.590345 73104494.979338 A2001223.000000 2001223.000000 0.0 0 0 2060000.997880 75035412.878802" />
<path d="M72365170.062013 83943825.759194 A281933568.000000 281933568.000000 0.0 0 0 2334998.999960 75036067.039881" />
<path d="M2334999 75036067
L2060001 75035413
" />
<path d="M94595243.898955 9353966.264035 A144026593.000000 144026593.000000 0.0 0 0 50410225.979572 25000.402939" />
<path d="M1459998.980738 16784495.974436 A4063010.000000 4063010.000000 0.0 0 0 32857.874062 18798815.959973" />
<path d="M95066999 64511496
L95029999 10034496
" />
<path d="M97544998.792767 94859496.319564 A1966571.000000 1966571.000000 0.0 0 0 100276998.870607 94260760.918155" />
<path d="M97544998.764934 94859496.368771 A86937040.000000 86937040.000000 0.0 0 0 72364705.933756 83945633.258905" />
<path d="M95066999 64511496
L89116999 64511496
" />
<path d="M112316999 73311496
L100276999 94260761
" />
</g>
<g style="fill:#C2C200; fill-opacity:0.0; 
stroke:#C2C200; stroke-width:150000.000000; stroke-opacity:1; 
stroke-linecap:round; stroke-linejoin:round;">
<path d="M70889252 66276282
L84412213 69899749
" />
<path d="M67265785 79799243
L80788746 83422710
" />
<path d="M67265785 79799243
L70889252 66276282
" />
<path d="M80788746 83422710
L84412213 69899749
" />
<path d="M92954821 73503318
L105079177 80503318
" />
<path d="M85954821 85627674
L98079177 92627674
" />
<path d="M85954821 85627674
L92954821 73503318
" />
<path d="M98079177 92627674
L105079177 80503318
" />
<path d="M59566999 45029496
L73566999 45029496
" />
<path d="M59566999 59029496
L73566999 59029496
" />
<path d="M59566999 59029496
L59566999 45029496
" />
<path d="M73566999 59029496
L73566999 45029496
" />
<path d="M40566999 40457496
L54566999 40457496
" />
<path d="M40566999 54457496
L54566999 54457496
" />
<path d="M40566999 54457496
L40566999 40457496
" />
<path d="M54566999 54457496
L54566999 40457496
" />
<path d="M21574999 46685496
L35574999 46685496
" />
<path d="M21574999 60685496
L35574999 60685496
" />
<path d="M21574999 60685496
L21574999 46685496
" />
<path d="M35574999 60685496
L35574999 46685496
" />
<path d="M2566999 58561496
L16566999 58561496
" />
<path d="M2566999 72561496
L16566999 72561496
" />
<path d="M2566999 72561496
L2566999 58561496
" />
<path d="M16566999 72561496
L16566999 58561496
" />
<path d="M78546999 28551496
L92546999 28551496
" />
<path d="M78546999 42551496
L92546999 42551496
" />
<path d="M78546999 42551496
L78546999 28551496
" />
<path d="M92546999 42551496
L92546999 28551496
" />
<path d="M59566999 26011496
L73566999 26011496
" />
<path d="M59566999 40011496
L73566999 40011496
" />
<path d="M59566999 40011496
L59566999 26011496
" />
<path d="M73566999 40011496
L73566999 26011496
" />
<path d="M40566999 21439496
L54566999 21439496
" />
<path d="M40566999 35439496
L54566999 35439496
" />
<path d="M40566999 35439496
L40566999 21439496
" />
<path d="M54566999 35439496
L54566999 21439496
" />
<path d="M21566999 27635496
L35566999 27635496
" />
<path d="M21566999 41635496
L35566999 41635496
" />
<path d="M21566999 41635496
L21566999 27635496
" />
<path d="M35566999 41635496
L35566999 27635496
" />
<path d="M2566999 39561496
L16566999 39561496
" />
<path d="M2566999 53561496
L16566999 53561496
" />
<path d="M2566999 53561496
L2566999 39561496
" />
<path d="M16566999 53561496
L16566999 39561496
" />
<path d="M78566999 9561496
L92566999 9561496
" />
<path d="M78566999 23561496
L92566999 23561496
" />
<path d="M78566999 23561496
L78566999 9561496
" />
<path d="M92566999 23561496
L92566999 9561496
" />
<path d="M59560999 6993496
L73560999 6993496
" />
<path d="M59560999 20993496
L73560999 20993496
" />
<path d="M59560999 20993496
L59560999 6993496
" />
<path d="M73560999 20993496
L73560999 6993496
" />
<path d="M40566999 2421496
L54566999 2421496
" />
<path d="M40566999 16421496
L54566999 16421496
" />
<path d="M40566999 16421496
L40566999 2421496
" />
<path d="M54566999 16421496
L54566999 2421496
" />
<path d="M21566999 8561496
L35566999 8561496
" />
<path d="M21566999 22561496
L35566999 22561496
" />
<path d="M21566999 22561496
L21566999 8561496
" />
<path d="M35566999 22561496
L35566999 8561496
" />
<path d="M2566999 20561496
L16566999 20561496
" />
<path d="M2566999 34561496
L16566999 34561496
" />
<path d="M2566999 34561496
L2566999 20561496
" />
<path d="M16566999 34561496
L16566999 20561496
" />
<path d="M78546999 47569496
L92546999 47569496
" />
<path d="M78546999 61569496
L92546999 61569496
" />
<path d="M78546999 61569496
L78546999 47569496
" />
<path d="M92546999 61569496
L92546999 47569496
" />
<g >
</g>
<g >
</g>
<g >
</g>
<g >
</g>
<g >
</g>
<g >
</g>
<g >
</g>
<g >
</g>
<g >
</g>
<g >
</g>
<g >
</g>
<g >
</g>
<g >
</g>
<g >
</g>
<g >
</g>
<g >
</g>
<g >
</g>
<g >
</g>
<g >
</g>
<g >
</g>
</g> 
</svg>
