<?xml version="1.0" standalone="no"?>
 <!DOCTYPE svg PUBLIC "-//W3C//DTD SVG 1.1//EN" 
 "http://www.w3.org/Graphics/SVG/1.1/DTD/svg11.dtd"> 
<svg
  xmlns:svg="http://www.w3.org/2000/svg"
  xmlns="http://www.w3.org/2000/svg"
  xmlns:xlink="http://www.w3.org/1999/xlink"
  version="1.1"
  width="11.861800cm" height="10.320020cm" viewBox="0 0 118618000 103200200">
<title>SVG Picture created as sweepbling-lp__plate-Edge_Cuts.svg date 2022/05/07 01:22:10 </title>
  <desc>Picture generated by PCBNEW </desc>
<g style="fill:#000000; fill-opacity:1.000000;stroke:#000000; stroke-opacity:1.000000;
stroke-linecap:round; stroke-linejoin:round;"
 transform="translate(0 0) scale(1 1)">
</g>
<g style="fill:#000000; fill-opacity:0.0; 
stroke:#000000; stroke-width:0.000000; stroke-opacity:1; 
stroke-linecap:round; stroke-linejoin:round;">
</g>
<g style="fill:#000000; fill-opacity:0.0; 
stroke:#000000; stroke-width:50000.000000; stroke-opacity:1; 
stroke-linecap:round; stroke-linejoin:round;">
<path d="M9525000.000000 74683077.000000 A1135923.000000 1135923.000000 0.0 0 0 8508999.581918 76327000.209041" />
<path d="M112704000 62865000
L112704000 57785000
" />
<path d="M112704000 33909000
L112704000 38989000
" />
<path d="M62156223 6643679
L66357611 6649139
" />
<path d="M112704000 62865000
L112719507 74686022
" />
<path d="M112757945.360700 25419701.885295 A4063011.000000 4063011.000000 0.0 0 0 111331000.140417 23405999.813639" />
<path d="M110680000.000266 76524118.991137 A1985405.000000 1985405.000000 0.0 0 0 112719506.831469 74686021.987538" />
<path d="M24225999 72771000
L24225955 15580419
" />
<path d="M8509000 76327000
L17778000 92592265
" />
<path d="M22190997.984630 74701918.878649 A2001224.000000 2001224.000000 0.0 0 0 24225999.409043 72771000.014316" />
<path d="M62156223.013914 6643679.167153 A144025969.000000 144025969.000000 0.0 0 0 24660710.029542 14899889.080825" />
<path d="M110679999.999494 76524118.716333 A323956927.000000 323956927.000000 0.0 0 0 42038865.958318 84004945.809428" />
<path d="M22190998 74701918
L9525000 74683078
" />
<path d="M24660709.756173 14899888.473643 A750000.000000 750000.000000 0.0 0 0 24225955.000001 15580419.000000" />
<path d="M17778000.129393 92592264.918155 A1966571.000000 1966571.000000 0.0 0 0 20510000.207233 93191000.319564" />
<path d="M111330999.961996 23406000.043919 A68730005.000000 68730005.000000 0.0 0 0 66357611.000000 6649139.000000" />
<path d="M42038865.978279 84004945.920668 A86289236.000000 86289236.000000 0.0 0 0 20509999.966410 93190999.943880" />
<path d="M112704000 38989000
L112704000 57785000
" />
<path d="M112757945 25419702
L112704000 33909000
" />
</g>
<g style="fill:#000000; fill-opacity:0.0; 
stroke:#000000; stroke-width:10007.000000; stroke-opacity:1; 
stroke-linecap:round; stroke-linejoin:round;">
<path d="M39430000 51031000
L39430000 64031000
" />
<path d="M25930000 64521924
L38930000 64531000
" />
<path d="M25930000 50531000
L38930000 50531000
" />
<path d="M25430000 51031000
L25430000 64021924
" />
<path d="M25430000.000001 64021924.000000 A500001.000000 500001.000000 0.0 0 0 25930000.000000 64521923.999999" />
<path d="M38930000.000000 64530999.999999 A500001.000000 500001.000000 0.0 0 0 39429999.999999 64031000.000000" />
<path d="M39429999.999999 51031000.000000 A500001.000000 500001.000000 0.0 0 0 38930000.000000 50531000.000001" />
<path d="M25930000.000000 50531000.000001 A500001.000000 500001.000000 0.0 0 0 25430000.000001 51031000.000000" />
<path d="M43444000 44473000
L43444000 31473000
" />
<path d="M56944000 30982076
L43944000 30973000
" />
<path d="M56944000 44973000
L43944000 44973000
" />
<path d="M57444000 44473000
L57444000 31482076
" />
<path d="M57443999.999999 31482076.000000 A500001.000000 500001.000000 0.0 0 0 56944000.000000 30982076.000001" />
<path d="M43944000.000000 30973000.000001 A500001.000000 500001.000000 0.0 0 0 43444000.000001 31473000.000000" />
<path d="M43444000.000001 44473000.000000 A500001.000000 500001.000000 0.0 0 0 43944000.000000 44972999.999999" />
<path d="M56944000.000000 44972999.999999 A500001.000000 500001.000000 0.0 0 0 57443999.999999 44473000.000000" />
<path d="M75432000 43157000
L75432000 56157000
" />
<path d="M61932000 56647924
L74932000 56657000
" />
<path d="M61932000 42657000
L74932000 42657000
" />
<path d="M61432000 43157000
L61432000 56147924
" />
<path d="M61432000.000001 56147924.000000 A500001.000000 500001.000000 0.0 0 0 61932000.000000 56647923.999999" />
<path d="M74932000.000000 56656999.999999 A500001.000000 500001.000000 0.0 0 0 75431999.999999 56157000.000000" />
<path d="M75431999.999999 43157000.000000 A500001.000000 500001.000000 0.0 0 0 74932000.000000 42657000.000001" />
<path d="M61932000.000000 42657000.000001 A500001.000000 500001.000000 0.0 0 0 61432000.000001 43157000.000000" />
<path d="M79458000 63015000
L79458000 50015000
" />
<path d="M92958000 49524076
L79958000 49515000
" />
<path d="M92958000 63515000
L79958000 63515000
" />
<path d="M93458000 63015000
L93458000 50024076
" />
<path d="M93457999.999999 50024076.000000 A500001.000000 500001.000000 0.0 0 0 92958000.000000 49524076.000001" />
<path d="M79958000.000000 49515000.000001 A500001.000000 500001.000000 0.0 0 0 79458000.000001 50015000.000000" />
<path d="M79458000.000001 63015000.000000 A500001.000000 500001.000000 0.0 0 0 79958000.000000 63514999.999999" />
<path d="M92958000.000000 63514999.999999 A500001.000000 500001.000000 0.0 0 0 93457999.999999 63015000.000000" />
<path d="M43444000 27523000
L43444000 14523000
" />
<path d="M56944000 14032076
L43944000 14023000
" />
<path d="M56944000 28023000
L43944000 28023000
" />
<path d="M57444000 27523000
L57444000 14532076
" />
<path d="M57443999.999999 14532076.000000 A500001.000000 500001.000000 0.0 0 0 56944000.000000 14032076.000001" />
<path d="M43944000.000000 14023000.000001 A500001.000000 500001.000000 0.0 0 0 43444000.000001 14523000.000000" />
<path d="M43444000.000001 27523000.000000 A500001.000000 500001.000000 0.0 0 0 43944000.000000 28022999.999999" />
<path d="M56944000.000000 28022999.999999 A500001.000000 500001.000000 0.0 0 0 57443999.999999 27523000.000000" />
<path d="M97476000 41023000
L97476000 28023000
" />
<path d="M110976000 27532076
L97976000 27523000
" />
<path d="M110976000 41523000
L97976000 41523000
" />
<path d="M111476000 41023000
L111476000 28032076
" />
<path d="M111475999.999999 28032076.000000 A500001.000000 500001.000000 0.0 0 0 110976000.000000 27532076.000001" />
<path d="M97976000.000000 27523000.000001 A500001.000000 500001.000000 0.0 0 0 97476000.000001 28023000.000000" />
<path d="M97476000.000001 41023000.000000 A500001.000000 500001.000000 0.0 0 0 97976000.000000 41522999.999999" />
<path d="M110976000.000000 41522999.999999 A500001.000000 500001.000000 0.0 0 0 111475999.999999 41023000.000000" />
<path d="M43444000 61491000
L43444000 48491000
" />
<path d="M56944000 48000076
L43944000 47991000
" />
<path d="M56944000 61991000
L43944000 61991000
" />
<path d="M57444000 61491000
L57444000 48500076
" />
<path d="M57443999.999999 48500076.000000 A500001.000000 500001.000000 0.0 0 0 56944000.000000 48000076.000001" />
<path d="M43944000.000000 47991000.000001 A500001.000000 500001.000000 0.0 0 0 43444000.000001 48491000.000000" />
<path d="M43444000.000001 61491000.000000 A500001.000000 500001.000000 0.0 0 0 43944000.000000 61990999.999999" />
<path d="M56944000.000000 61990999.999999 A500001.000000 500001.000000 0.0 0 0 57443999.999999 61491000.000000" />
<path d="M61432000 22023000
L61432000 9023000
" />
<path d="M74932000 8532076
L61932000 8523000
" />
<path d="M74932000 22523000
L61932000 22523000
" />
<path d="M75432000 22023000
L75432000 9032076
" />
<path d="M75431999.999999 9032076.000000 A500001.000000 500001.000000 0.0 0 0 74932000.000000 8532076.000001" />
<path d="M61932000.000000 8523000.000001 A500001.000000 500001.000000 0.0 0 0 61432000.000001 9023000.000000" />
<path d="M61432000.000001 22023000.000000 A500001.000000 500001.000000 0.0 0 0 61932000.000000 22522999.999999" />
<path d="M74932000.000000 22522999.999999 A500001.000000 500001.000000 0.0 0 0 75431999.999999 22023000.000000" />
<path d="M97476000 75023000
L97476000 62023000
" />
<path d="M110976000 61532076
L97976000 61523000
" />
<path d="M110976000 75523000
L97976000 75523000
" />
<path d="M111476000 75023000
L111476000 62032076
" />
<path d="M111475999.999999 62032076.000000 A500001.000000 500001.000000 0.0 0 0 110976000.000000 61532076.000001" />
<path d="M97976000.000000 61523000.000001 A500001.000000 500001.000000 0.0 0 0 97476000.000001 62023000.000000" />
<path d="M97476000.000001 75023000.000000 A500001.000000 500001.000000 0.0 0 0 97976000.000000 75522999.999999" />
<path d="M110976000.000000 75522999.999999 A500001.000000 500001.000000 0.0 0 0 111475999.999999 75023000.000000" />
<path d="M39430000 34013000
L39430000 47013000
" />
<path d="M25930000 47503924
L38930000 47513000
" />
<path d="M25930000 33513000
L38930000 33513000
" />
<path d="M25430000 34013000
L25430000 47003924
" />
<path d="M25430000.000001 47003924.000000 A500001.000000 500001.000000 0.0 0 0 25930000.000000 47503923.999999" />
<path d="M38930000.000000 47512999.999999 A500001.000000 500001.000000 0.0 0 0 39429999.999999 47013000.000000" />
<path d="M39429999.999999 34013000.000000 A500001.000000 500001.000000 0.0 0 0 38930000.000000 33513000.000001" />
<path d="M25930000.000000 33513000.000001 A500001.000000 500001.000000 0.0 0 0 25430000.000001 34013000.000000" />
<path d="M79458000 29023000
L79458000 16023000
" />
<path d="M92958000 15532076
L79958000 15523000
" />
<path d="M92958000 29523000
L79958000 29523000
" />
<path d="M93458000 29023000
L93458000 16032076
" />
<path d="M93457999.999999 16032076.000000 A500001.000000 500001.000000 0.0 0 0 92958000.000000 15532076.000001" />
<path d="M79958000.000000 15523000.000001 A500001.000000 500001.000000 0.0 0 0 79458000.000001 16023000.000000" />
<path d="M79458000.000001 29023000.000000 A500001.000000 500001.000000 0.0 0 0 79958000.000000 29522999.999999" />
<path d="M92958000.000000 29522999.999999 A500001.000000 500001.000000 0.0 0 0 93457999.999999 29023000.000000" />
<path d="M79458000 45997000
L79458000 32997000
" />
<path d="M92958000 32506076
L79958000 32497000
" />
<path d="M92958000 46497000
L79958000 46497000
" />
<path d="M93458000 45997000
L93458000 33006076
" />
<path d="M93457999.999999 33006076.000000 A500001.000000 500001.000000 0.0 0 0 92958000.000000 32506076.000001" />
<path d="M79958000.000000 32497000.000001 A500001.000000 500001.000000 0.0 0 0 79458000.000001 32997000.000000" />
<path d="M79458000.000001 45997000.000000 A500001.000000 500001.000000 0.0 0 0 79958000.000000 46496999.999999" />
<path d="M92958000.000000 46496999.999999 A500001.000000 500001.000000 0.0 0 0 93457999.999999 45997000.000000" />
<path d="M45601157 67132749
L48965805 79689785
" />
<path d="M36052866 83658038
L48612251 80302157
" />
<path d="M32431749 70143843
L44988785 66779195
" />
<path d="M32078195 70756215
L35440494 83304484
" />
<path d="M35440494.167486 83304483.955122 A500001.000000 500001.000000 0.0 0 0 36052866.089095 83658038.332511" />
<path d="M48612251.146955 80302157.548438 A500002.000000 500002.000000 0.0 0 0 48965805.365423 79689784.902087" />
<path d="M45601157.548438 67132748.853045 A500002.000000 500002.000000 0.0 0 0 44988784.902087 66779194.634577" />
<path d="M32431748.853045 70143842.451562 A500002.000000 500002.000000 0.0 0 0 32078194.634577 70756215.097913" />
<path d="M61432000 39139000
L61432000 26139000
" />
<path d="M74932000 25648076
L61932000 25639000
" />
<path d="M74932000 39639000
L61932000 39639000
" />
<path d="M75432000 39139000
L75432000 26148076
" />
<path d="M75431999.999999 26148076.000000 A500001.000000 500001.000000 0.0 0 0 74932000.000000 25648076.000001" />
<path d="M61932000.000000 25639000.000001 A500001.000000 500001.000000 0.0 0 0 61432000.000001 26139000.000000" />
<path d="M61432000.000001 39139000.000000 A500001.000000 500001.000000 0.0 0 0 61932000.000000 39638999.999999" />
<path d="M74932000.000000 39638999.999999 A500001.000000 500001.000000 0.0 0 0 75431999.999999 39139000.000000" />
<path d="M24774178 74093835
L31274178 85352165
" />
<path d="M19828297 92527318
L31091165 86035178
" />
<path d="M12832835 80410822
L24091165 73910822
" />
<path d="M12649822 81093835
L19145284 92344305
" />
<path d="M19145283.790569 92344305.120916 A500001.000000 500001.000000 0.0 0 0 19828296.937903 92527317.892444" />
<path d="M31091165.120916 86035178.209431 A500001.000000 500001.000000 0.0 0 0 31274177.892444 85352165.062097" />
<path d="M24774178.209431 74093834.879084 A500001.000000 500001.000000 0.0 0 0 24091165.062097 73910822.107556" />
<path d="M12832834.879084 80410821.790569 A500001.000000 500001.000000 0.0 0 0 12649822.107556 81093834.937903" />
<path d="M97476000 58023000
L97476000 45023000
" />
<path d="M110976000 44532076
L97976000 44523000
" />
<path d="M110976000 58523000
L97976000 58523000
" />
<path d="M111476000 58023000
L111476000 45032076
" />
<path d="M111475999.999999 45032076.000000 A500001.000000 500001.000000 0.0 0 0 110976000.000000 44532076.000001" />
<path d="M97976000.000000 44523000.000001 A500001.000000 500001.000000 0.0 0 0 97476000.000001 45023000.000000" />
<path d="M97476000.000001 58023000.000000 A500001.000000 500001.000000 0.0 0 0 97976000.000000 58522999.999999" />
<path d="M110976000.000000 58522999.999999 A500001.000000 500001.000000 0.0 0 0 111475999.999999 58023000.000000" />
<path d="M39430000 17023000
L39430000 30023000
" />
<path d="M25930000 30513924
L38930000 30523000
" />
<path d="M25930000 16523000
L38930000 16523000
" />
<path d="M25430000 17023000
L25430000 30013924
" />
<path d="M25430000.000001 30013924.000000 A500001.000000 500001.000000 0.0 0 0 25930000.000000 30513923.999999" />
<path d="M38930000.000000 30522999.999999 A500001.000000 500001.000000 0.0 0 0 39429999.999999 30023000.000000" />
<path d="M39429999.999999 17023000.000000 A500001.000000 500001.000000 0.0 0 0 38930000.000000 16523000.000001" />
<path d="M25930000.000000 16523000.000001 A500001.000000 500001.000000 0.0 0 0 25430000.000001 17023000.000000" />
<g >
</g>
<g >
</g>
<g >
</g>
<g >
</g>
<g >
</g>
<g >
</g>
<g >
</g>
<g >
</g>
<g >
</g>
<g >
</g>
<g >
</g>
<g >
</g>
<g >
</g>
<g >
</g>
<g >
</g>
<g >
</g>
<g >
</g>
<g >
</g>
<g >
</g>
<g >
</g>
<g >
</g>
<g >
</g>
</g> 
</svg>
