  0
SECTION
  2
HEADER
  9
$ANGBASE
  50
0.0
  9
$ANGDIR
  70
1
  9
$MEASUREMENT
  70
1
  0
ENDSEC
  0
SECTION
  2
TABLES
  0
TABLE
  2
LTYPE
  70
4
  0
LTYPE
  5
40F
  2
CONTINUOUS
  70
0
  3
Solid line
  72
65
  73
0
  40
0.0
  0
LTYPE
  5
410
  2
DASHDOT
 70
0
  3
Dash Dot ____ _ ____ _
 72
65
 73
4
 40
2.0
 49
1.25
 49
-0.25
 49
0.25
 49
-0.25
  0
LTYPE
  5
411
  2
DASHED
 70
0
  3
Dashed __ __ __ __ __
 72
65
 73
2
 40
0.75
 49
0.5
 49
-0.25
  0
LTYPE
  5
43B
  2
DOTTED
 70
0
  3
Dotted .  .  .  .
 72
65
 73
2
 40
0.2
 49
0.0
 49
-0.2
  0
ENDTAB
  0
TABLE
  2
STYLE
  70
4
  0
STYLE
  2
KICAD
  70
0
  40
0
  41
1
  42
1
  50
0
  71
0
  3
isocp.shx
  0
STYLE
  2
KICADB
  70
0
  40
0
  41
1
  42
1
  50
0
  71
0
  3
isocp.shx
  0
STYLE
  2
KICADI
  70
0
  40
0
  41
1
  42
1
  50
15
  71
0
  3
isocp.shx
  0
STYLE
  2
KICADBI
  70
0
  40
0
  41
1
  42
1
  50
15
  71
0
  3
isocp.shx
  0
ENDTAB
  0
TABLE
  2
LAYER
  70
1
  0
LAYER
  2
BLACK
  70
0
  62
7
  6
CONTINUOUS
  0
ENDTAB
  0
ENDSEC
  0
SECTION
  2
ENTITIES
0
CIRCLE
8
BLACK
10
92.456
20
-106.045
40
2.16273
0
CIRCLE
8
BLACK
10
111.506
20
-86.995
40
2.16273
0
CIRCLE
8
BLACK
10
73.406
20
-86.995
40
2.16273
0
CIRCLE
8
BLACK
10
139.192
20
-125.222
40
1.08509
0
CIRCLE
8
BLACK
10
57.404
20
-113.538
40
1.08509
0
CIRCLE
8
BLACK
10
52.197
20
-66.294
40
1.08509
0
CIRCLE
8
BLACK
10
112.776
20
-56.388
40
1.08509
0
CIRCLE
8
BLACK
10
92.456
20
-67.945
40
2.16273
0
LINE
8
BLACK
6
CONTINUOUS
10
146.837
20
-124.155
11
135.71
21
-143.699
0
LINE
8
BLACK
6
CONTINUOUS
10
130.458
20
-80.8689
11
130.463
21
-59.473
0
ARC
8
BLACK
10
39.338
20
-69.468
40
4.06302
50
126.997
51
162.368
0
ARC
8
BLACK
10
78.5506
20
-193.305
40
144.027
50
69.0583
51
87.0977
0
LINE
8
BLACK
6
CONTINUOUS
10
37.768
20
-124.475
11
37.493
21
-124.474
0
ARC
8
BLACK
10
86.2279
20
-217.64
40
86.9745
50
57.4853
51
75.6404
0
ARC
8
BLACK
10
37.488
20
-406.408
40
281.934
50
75.5588
51
89.9431
0
ARC
8
BLACK
10
37.458
20
-122.473
40
2.00122
50
-177.995
51
-88.9979
0
ARC
8
BLACK
10
134.048
20
-142.648
40
1.96657
50
-122.963
51
-32.3146
0
ARC
8
BLACK
10
129.713
20
-59.473
40
0.749999
50
-7.63944e-05
51
65.1448
0
LINE
8
BLACK
6
CONTINUOUS
10
35.4659
20
-68.2373
11
35.458
21
-122.543
0
LINE
8
BLACK
6
CONTINUOUS
10
85.8432
20
-49.4635
11
81.868
21
-49.468
0
ARC
8
BLACK
10
81.868
20
-118.208
40
68.7401
50
90
51
130.865
0
ARC
8
BLACK
10
131.445
20
-121.412
40
0.999999
50
-180
51
-89.9999
0
ARC
8
BLACK
10
145.948
20
-123.52
40
1.09249
50
-35.5376
51
89.9999
0
LINE
8
BLACK
6
CONTINUOUS
10
131.445
20
-122.412
11
145.948
21
-122.428
0
LINE
8
BLACK
6
CONTINUOUS
10
130.458
20
-80.8689
11
130.445
21
-121.412
0
LINE
8
BLACK
6
CONTINUOUS
10
52
20
-70.5
11
52
21
-83.5
0
LINE
8
BLACK
6
CONTINUOUS
10
38.5
20
-70
11
51.5
21
-70
0
LINE
8
BLACK
6
CONTINUOUS
10
38.5
20
-83.9909
11
51.5
21
-84
0
LINE
8
BLACK
6
CONTINUOUS
10
38
20
-70.5
11
38
21
-83.4909
0
ARC
8
BLACK
10
38.5
20
-83.4909
40
0.500001
50
-180
51
-90.0001
0
ARC
8
BLACK
10
38.5
20
-70.5
40
0.500001
50
90.0001
51
180
0
ARC
8
BLACK
10
51.5
20
-83.5
40
0.500001
50
-89.9999
51
-0.000114591
0
ARC
8
BLACK
10
51.5
20
-70.5
40
0.500001
50
0.000114591
51
89.9999
0
LINE
8
BLACK
6
CONTINUOUS
10
71
20
-58.5
11
71
21
-71.5
0
LINE
8
BLACK
6
CONTINUOUS
10
57.5
20
-58
11
70.5
21
-58
0
LINE
8
BLACK
6
CONTINUOUS
10
57
20
-58.5
11
57
21
-71.4909
0
LINE
8
BLACK
6
CONTINUOUS
10
57.5
20
-71.9909
11
70.5
21
-72
0
ARC
8
BLACK
10
57.5
20
-71.4909
40
0.500001
50
-180
51
-90.0001
0
ARC
8
BLACK
10
57.5
20
-58.5
40
0.500001
50
90.0001
51
180
0
ARC
8
BLACK
10
70.5
20
-58.5
40
0.500001
50
0.000114591
51
89.9999
0
ARC
8
BLACK
10
70.5
20
-71.5
40
0.500001
50
-89.9999
51
-0.000114591
0
LINE
8
BLACK
6
CONTINUOUS
10
76.5
20
-51.86
11
89.5
21
-51.86
0
LINE
8
BLACK
6
CONTINUOUS
10
76.5
20
-65.8509
11
89.5
21
-65.86
0
LINE
8
BLACK
6
CONTINUOUS
10
76
20
-52.36
11
76
21
-65.3509
0
LINE
8
BLACK
6
CONTINUOUS
10
90
20
-52.36
11
90
21
-65.36
0
ARC
8
BLACK
10
76.5
20
-52.36
40
0.500001
50
90.0001
51
180
0
ARC
8
BLACK
10
89.5
20
-65.36
40
0.500001
50
-89.9999
51
-0.000114591
0
ARC
8
BLACK
10
76.5
20
-65.3509
40
0.500001
50
-180
51
-90.0001
0
ARC
8
BLACK
10
89.5
20
-52.36
40
0.500001
50
0.000114591
51
89.9999
0
LINE
8
BLACK
6
CONTINUOUS
10
95.494
20
-70.4229
11
108.494
21
-70.432
0
LINE
8
BLACK
6
CONTINUOUS
10
94.994
20
-56.932
11
94.994
21
-69.9229
0
LINE
8
BLACK
6
CONTINUOUS
10
95.494
20
-56.432
11
108.494
21
-56.432
0
LINE
8
BLACK
6
CONTINUOUS
10
108.994
20
-56.932
11
108.994
21
-69.932
0
ARC
8
BLACK
10
108.494
20
-69.932
40
0.500001
50
-89.9999
51
-0.000114591
0
ARC
8
BLACK
10
95.494
20
-69.9229
40
0.500001
50
-180
51
-90.0001
0
ARC
8
BLACK
10
108.494
20
-56.932
40
0.500001
50
0.000114591
51
89.9999
0
ARC
8
BLACK
10
95.494
20
-56.932
40
0.500001
50
90.0001
51
180
0
LINE
8
BLACK
6
CONTINUOUS
10
128
20
-59.5
11
128
21
-72.5
0
LINE
8
BLACK
6
CONTINUOUS
10
114.5
20
-72.9909
11
127.5
21
-73
0
LINE
8
BLACK
6
CONTINUOUS
10
114
20
-59.5
11
114
21
-72.4909
0
LINE
8
BLACK
6
CONTINUOUS
10
114.5
20
-59
11
127.5
21
-59
0
ARC
8
BLACK
10
127.5
20
-59.5
40
0.500001
50
0.000114591
51
89.9999
0
ARC
8
BLACK
10
114.5
20
-72.4909
40
0.500001
50
-180
51
-90.0001
0
ARC
8
BLACK
10
127.5
20
-72.5
40
0.500001
50
-89.9999
51
-0.000114591
0
ARC
8
BLACK
10
114.5
20
-59.5
40
0.500001
50
90.0001
51
180
0
LINE
8
BLACK
6
CONTINUOUS
10
38
20
-89.5
11
38
21
-102.491
0
LINE
8
BLACK
6
CONTINUOUS
10
52
20
-89.5
11
52
21
-102.5
0
LINE
8
BLACK
6
CONTINUOUS
10
38.5
20
-89
11
51.5
21
-89
0
LINE
8
BLACK
6
CONTINUOUS
10
38.5
20
-102.991
11
51.5
21
-103
0
ARC
8
BLACK
10
51.5
20
-89.5
40
0.500001
50
0.000114591
51
89.9999
0
ARC
8
BLACK
10
38.5
20
-89.5
40
0.500001
50
90.0001
51
180
0
ARC
8
BLACK
10
38.5
20
-102.491
40
0.500001
50
-180
51
-90.0001
0
ARC
8
BLACK
10
51.5
20
-102.5
40
0.500001
50
-89.9999
51
-0.000114591
0
LINE
8
BLACK
6
CONTINUOUS
10
71
20
-77.574
11
71
21
-90.574
0
LINE
8
BLACK
6
CONTINUOUS
10
57.5
20
-77.074
11
70.5
21
-77.074
0
LINE
8
BLACK
6
CONTINUOUS
10
57.5
20
-91.0649
11
70.5
21
-91.074
0
LINE
8
BLACK
6
CONTINUOUS
10
57
20
-77.574
11
57
21
-90.5649
0
ARC
8
BLACK
10
70.5
20
-90.574
40
0.500001
50
-89.9999
51
-0.000114591
0
ARC
8
BLACK
10
57.5
20
-90.5649
40
0.500001
50
-180
51
-90.0001
0
ARC
8
BLACK
10
57.5
20
-77.574
40
0.500001
50
90.0001
51
180
0
ARC
8
BLACK
10
70.5
20
-77.574
40
0.500001
50
0.000114591
51
89.9999
0
LINE
8
BLACK
6
CONTINUOUS
10
76.5
20
-70.878
11
89.5
21
-70.878
0
LINE
8
BLACK
6
CONTINUOUS
10
76.5
20
-84.8689
11
89.5
21
-84.878
0
LINE
8
BLACK
6
CONTINUOUS
10
76
20
-71.378
11
76
21
-84.3689
0
LINE
8
BLACK
6
CONTINUOUS
10
90
20
-71.378
11
90
21
-84.378
0
ARC
8
BLACK
10
89.5
20
-84.378
40
0.500001
50
-89.9999
51
-0.000114591
0
ARC
8
BLACK
10
89.5
20
-71.378
40
0.500001
50
0.000114591
51
89.9999
0
ARC
8
BLACK
10
76.5
20
-71.378
40
0.500001
50
90.0001
51
180
0
ARC
8
BLACK
10
76.5
20
-84.3689
40
0.500001
50
-180
51
-90.0001
0
LINE
8
BLACK
6
CONTINUOUS
10
109
20
-75.95
11
109
21
-88.95
0
LINE
8
BLACK
6
CONTINUOUS
10
95.5
20
-89.4409
11
108.5
21
-89.45
0
LINE
8
BLACK
6
CONTINUOUS
10
95
20
-75.95
11
95
21
-88.9409
0
LINE
8
BLACK
6
CONTINUOUS
10
95.5
20
-75.45
11
108.5
21
-75.45
0
ARC
8
BLACK
10
95.5
20
-75.95
40
0.500001
50
90.0001
51
180
0
ARC
8
BLACK
10
108.5
20
-88.95
40
0.500001
50
-89.9999
51
-0.000114591
0
ARC
8
BLACK
10
108.5
20
-75.95
40
0.500001
50
0.000114591
51
89.9999
0
ARC
8
BLACK
10
95.5
20
-88.9409
40
0.500001
50
-180
51
-90.0001
0
LINE
8
BLACK
6
CONTINUOUS
10
127.98
20
-78.49
11
127.98
21
-91.49
0
LINE
8
BLACK
6
CONTINUOUS
10
114.48
20
-77.99
11
127.48
21
-77.99
0
LINE
8
BLACK
6
CONTINUOUS
10
114.48
20
-91.9809
11
127.48
21
-91.99
0
LINE
8
BLACK
6
CONTINUOUS
10
113.98
20
-78.49
11
113.98
21
-91.4809
0
ARC
8
BLACK
10
127.48
20
-91.49
40
0.500001
50
-89.9999
51
-0.000114591
0
ARC
8
BLACK
10
114.48
20
-78.49
40
0.500001
50
90.0001
51
180
0
ARC
8
BLACK
10
127.48
20
-78.49
40
0.500001
50
0.000114591
51
89.9999
0
ARC
8
BLACK
10
114.48
20
-91.4809
40
0.500001
50
-180
51
-90.0001
0
LINE
8
BLACK
6
CONTINUOUS
10
52
20
-108.5
11
52
21
-121.5
0
LINE
8
BLACK
6
CONTINUOUS
10
38
20
-108.5
11
38
21
-121.491
0
LINE
8
BLACK
6
CONTINUOUS
10
38.5
20
-108
11
51.5
21
-108
0
LINE
8
BLACK
6
CONTINUOUS
10
38.5
20
-121.991
11
51.5
21
-122
0
ARC
8
BLACK
10
51.5
20
-108.5
40
0.500001
50
0.000114591
51
89.9999
0
ARC
8
BLACK
10
51.5
20
-121.5
40
0.500001
50
-89.9999
51
-0.000114591
0
ARC
8
BLACK
10
38.5
20
-121.491
40
0.500001
50
-180
51
-90.0001
0
ARC
8
BLACK
10
38.5
20
-108.5
40
0.500001
50
90.0001
51
180
0
LINE
8
BLACK
6
CONTINUOUS
10
71.008
20
-96.624
11
71.008
21
-109.624
0
LINE
8
BLACK
6
CONTINUOUS
10
57.008
20
-96.624
11
57.008
21
-109.615
0
LINE
8
BLACK
6
CONTINUOUS
10
57.508
20
-96.124
11
70.508
21
-96.124
0
LINE
8
BLACK
6
CONTINUOUS
10
57.508
20
-110.115
11
70.508
21
-110.124
0
ARC
8
BLACK
10
57.508
20
-96.624
40
0.500001
50
90.0001
51
180
0
ARC
8
BLACK
10
57.508
20
-109.615
40
0.500001
50
-180
51
-90.0001
0
ARC
8
BLACK
10
70.508
20
-109.624
40
0.500001
50
-89.9999
51
-0.000114591
0
ARC
8
BLACK
10
70.508
20
-96.624
40
0.500001
50
0.000114591
51
89.9999
0
LINE
8
BLACK
6
CONTINUOUS
10
76
20
-90.396
11
76
21
-103.387
0
LINE
8
BLACK
6
CONTINUOUS
10
90
20
-90.396
11
90
21
-103.396
0
LINE
8
BLACK
6
CONTINUOUS
10
76.5
20
-103.887
11
89.5
21
-103.896
0
LINE
8
BLACK
6
CONTINUOUS
10
76.5
20
-89.896
11
89.5
21
-89.896
0
ARC
8
BLACK
10
76.5
20
-90.396
40
0.500001
50
90.0001
51
180
0
ARC
8
BLACK
10
89.5
20
-90.396
40
0.500001
50
0.000114591
51
89.9999
0
ARC
8
BLACK
10
89.5
20
-103.396
40
0.500001
50
-89.9999
51
-0.000114591
0
ARC
8
BLACK
10
76.5
20
-103.387
40
0.500001
50
-180
51
-90.0001
0
LINE
8
BLACK
6
CONTINUOUS
10
95.5
20
-94.468
11
108.5
21
-94.468
0
LINE
8
BLACK
6
CONTINUOUS
10
95
20
-94.968
11
95
21
-107.959
0
LINE
8
BLACK
6
CONTINUOUS
10
109
20
-94.968
11
109
21
-107.968
0
LINE
8
BLACK
6
CONTINUOUS
10
95.5
20
-108.459
11
108.5
21
-108.468
0
ARC
8
BLACK
10
95.5
20
-94.968
40
0.500001
50
90.0001
51
180
0
ARC
8
BLACK
10
108.5
20
-107.968
40
0.500001
50
-89.9999
51
-0.000114591
0
ARC
8
BLACK
10
108.5
20
-94.968
40
0.500001
50
0.000114591
51
89.9999
0
ARC
8
BLACK
10
95.5
20
-107.959
40
0.500001
50
-180
51
-90.0001
0
LINE
8
BLACK
6
CONTINUOUS
10
128.821
20
-123.192
11
140.079
21
-129.692
0
LINE
8
BLACK
6
CONTINUOUS
10
140.262
20
-130.375
11
133.762
21
-141.633
0
LINE
8
BLACK
6
CONTINUOUS
10
128.138
20
-123.375
11
121.642
21
-134.625
0
LINE
8
BLACK
6
CONTINUOUS
10
121.825
20
-135.308
11
133.079
21
-141.816
0
ARC
8
BLACK
10
133.329
20
-141.383
40
0.500001
50
-120
51
-30.0001
0
ARC
8
BLACK
10
122.075
20
-134.875
40
0.500001
50
-210
51
-120
0
ARC
8
BLACK
10
128.571
20
-123.625
40
0.500001
50
60.0001
51
150
0
ARC
8
BLACK
10
139.829
20
-130.125
40
0.500001
50
-29.9999
51
59.9999
0
LINE
8
BLACK
6
CONTINUOUS
10
106.805
20
-115.844
11
119.362
21
-119.209
0
LINE
8
BLACK
6
CONTINUOUS
10
103.184
20
-129.358
11
115.739
21
-132.732
0
LINE
8
BLACK
6
CONTINUOUS
10
106.193
20
-116.198
11
102.831
21
-128.746
0
LINE
8
BLACK
6
CONTINUOUS
10
119.716
20
-119.821
11
116.351
21
-132.378
0
ARC
8
BLACK
10
115.868
20
-132.249
40
0.500001
50
-105
51
-15.0001
0
ARC
8
BLACK
10
119.233
20
-119.692
40
0.500001
50
-14.9998
51
74.9999
0
ARC
8
BLACK
10
103.314
20
-128.875
40
0.5
50
-195
51
-105
0
ARC
8
BLACK
10
106.676
20
-116.327
40
0.500001
50
75.0002
51
165
0
LINE
8
BLACK
6
CONTINUOUS
10
114.48
20
-97.008
11
127.48
21
-97.008
0
LINE
8
BLACK
6
CONTINUOUS
10
113.98
20
-97.508
11
113.98
21
-110.499
0
LINE
8
BLACK
6
CONTINUOUS
10
114.48
20
-110.999
11
127.48
21
-111.008
0
LINE
8
BLACK
6
CONTINUOUS
10
127.98
20
-97.508
11
127.98
21
-110.508
0
ARC
8
BLACK
10
127.48
20
-110.508
40
0.500001
50
-89.9999
51
-0.000114591
0
ARC
8
BLACK
10
127.48
20
-97.508
40
0.500001
50
0.000114591
51
89.9999
0
ARC
8
BLACK
10
114.48
20
-97.508
40
0.500001
50
90.0001
51
180
0
ARC
8
BLACK
10
114.48
20
-110.499
40
0.500001
50
-180
51
-90.0001
  0
ENDSEC
  0
EOF
